<svg xmlns="http://www.w3.org/2000/svg" width="290.5" height="2"><path data-name="線 17" d="M290.5 2H288V0h2.5zM285 2h-3V0h3zm-6 0h-3V0h3zm-6 0h-3V0h3zm-6 0h-3V0h3zm-6 0h-3V0h3zm-6 0h-3V0h3zm-6 0h-3V0h3zm-6 0h-3V0h3zm-6 0h-3V0h3zm-6 0h-3V0h3zm-6 0h-3V0h3zm-6 0h-3V0h3zm-6 0h-3V0h3zm-6 0h-3V0h3zm-6 0h-3V0h3zm-6 0h-3V0h3zm-6 0h-3V0h3zm-6 0h-3V0h3zm-6 0h-3V0h3zm-6 0h-3V0h3zm-6 0h-3V0h3zm-6 0h-3V0h3zm-6 0h-3V0h3zm-6 0h-3V0h3zm-6 0h-3V0h3zm-6 0h-3V0h3zm-6 0h-3V0h3zm-6 0h-3V0h3zm-6 0h-3V0h3zm-6 0h-3V0h3zm-6 0h-3V0h3zm-6 0h-3V0h3zm-6 0h-3V0h3zm-6 0h-3V0h3zm-6 0h-3V0h3zm-6 0h-3V0h3zm-6 0h-3V0h3zm-6 0h-3V0h3zm-6 0h-3V0h3zm-6 0h-3V0h3zm-6 0h-3V0h3zm-6 0h-3V0h3zm-6 0h-3V0h3zm-6 0h-3V0h3zm-6 0h-3V0h3zm-6 0h-3V0h3zM9 2H6V0h3zM3 2H0V0h3z" fill="#00aaa2"/></svg>