<svg xmlns="http://www.w3.org/2000/svg" width="315.002" height="2.374"><path data-name="線 15" d="M315.001 2.374h-3v-2h3zm-6-.007h-3v-2h3zm-6-.007h-3v-2h3zm-6-.007h-3v-2h3zm-6-.007h-3v-2h3zm-6-.007h-3v-2h3zm-6-.007h-3v-2h3zm-6-.007h-3v-2h3zm-6-.007h-3v-2h3zm-6-.007h-3v-2h3zm-6-.011h-3v-2h3zm-6 0h-3v-2h3zm-6-.007h-3v-2h3zm-6-.007h-3v-2h3zm-6-.007h-3v-2h3zm-6-.007h-3v-2h3zm-6-.007h-3v-2h3zm-6-.007h-3v-2h3zm-6-.007h-3v-2h3zm-6-.007h-3v-2h3zm-6-.007h-3v-2h3zm-6-.007h-3v-2h3zm-6-.007h-3v-2h3zm-6-.007h-3v-2h3zm-6-.016h-3v-2h3zm-6 0h-3v-2h3zm-6-.007h-3v-2h3zm-6-.007h-3v-2h3zm-6-.007h-3v-2h3zm-6-.007h-3v-2h3zm-6-.007h-3v-2h3zm-6-.007h-3v-2h3zm-6-.007h-3v-2h3zm-6-.007h-3v-2h3zm-6-.007h-3v-2h3zm-6-.007h-3v-2h3zm-6-.007h-3v-2h3zm-6-.013h-3v-2h3zm-6-.01h-3v-2h3zm-6 0h-3v-2h3zm-6-.007h-3v-2h3zm-6-.007h-3v-2h3zm-6-.007h-3v-2h3zm-6-.007h-3v-2h3zm-6-.012h-3v-2h3zm-6-.007h-3v-2h3zm-6-.007h-3v-2h3zm-6-.007h-3v-2h3zm-6-.007h-3v-2h3zm-6-.007h-3v-2h3zm-6-.007h-3v-2h3zm-6-.007h-3v-2h3zm-6-.011h-3V0h3z" fill="#00aaa2"/></svg>